<svg width="51" height="51" viewBox="0 0 51 51" fill="none" xmlns="http://www.w3.org/2000/svg">
<path d="M14.9737 20.6052C14.1842 21.3947 14.1842 22.6579 14.9737 23.3947C15.7632 24.1842 17.0263 24.1842 17.7632 23.3947L23.5 17.6579V38.0263C23.5 39.1315 24.3948 40.0263 25.5 40.0263C26.6053 40.0263 27.5 39.1315 27.5 38.0263V17.7105L33.2369 23.4473C34.0263 24.2368 35.2895 24.2368 36.0263 23.4473C36.3948 23.0789 36.6053 22.5526 36.6053 22.0263C36.6053 21.5 36.3948 21.0263 36.0263 20.6052L26.9211 11.5C26.5526 11.1315 26.0263 10.921 25.5 10.921C24.9737 10.921 24.4474 11.1315 24.079 11.5L14.9737 20.6052Z" fill="black"/>
<path d="M0.5 25.5C0.5 39.2895 11.7105 50.5 25.5 50.5C39.2895 50.5 50.5 39.2895 50.5 25.5C50.5 11.7105 39.2895 0.5 25.5 0.5C11.7105 0.5 0.5 11.7105 0.5 25.5ZM46.5526 25.5C46.5526 37.0789 37.0789 46.5526 25.5 46.5526C13.9211 46.5526 4.44737 37.0789 4.44737 25.5C4.44737 13.9211 13.9211 4.44737 25.5 4.44737C37.0789 4.44737 46.5526 13.9211 46.5526 25.5Z" fill="black"/>
</svg>
