<?xml version="1.0" encoding="UTF-8"?>
<svg width="170px" height="170px" viewBox="0 0 170 170" version="1.1" xmlns="http://www.w3.org/2000/svg" xmlns:xlink="http://www.w3.org/1999/xlink">
    <title>GrabowseeLogo</title>
    <defs>
        <path d="M8.484375,97.190918 C6.44596354,88.6051432 6.44596354,79.6060384 8.484375,70.1936035 C11.5419922,56.0749512 16.4545898,46.0605469 27.7070312,32.1843262 C42.5986328,19.8818359 52.5078125,9.50244141 85.315918,6.77392578 C119.168945,8.47216797 137.750244,25.1916504 148.083496,39.2661133 C158.072266,54.6401367 161.208496,67.4178467 162.58252,77.5228271 C162.889811,88.0485433 162.675781,94.3295085 161.94043,96.3657227 L151.57373,117.792969 C145.03597,108.307617 139.639242,103.399089 135.383545,103.067383 C125.598633,103.067383 125.647217,115.69165 118.237549,115.69165 C112.02002,115.867676 110.843262,103.086426 101.603516,103.067383 C92.1459961,103.067383 91.5908203,116.817627 85.5,116.817627 C79.4091797,116.817627 79.512207,103.067383 69.4179688,103.067383 C59.3237305,103.067383 60.6328125,115.56543 53.3823242,115.69165 C46.2275391,115.564941 45.2988281,103.067383 36.7617187,103.067383 C32.2246094,103.139648 26.3745117,108.048177 19.2114258,117.792969 L8.484375,97.190918 Z" id="path-1"></path>
    </defs>
    <g id="Page-1" stroke="none" stroke-width="1" fill="none" fill-rule="evenodd">
        <g id="GrabowseeLogo">
            <circle id="outerCircle" stroke="#FFFFFF" stroke-width="5" cx="85" cy="85" r="82.5"></circle>
            <path d="M86.6245117,71.9057617 L87.9677734,88.2531738 M83.0402832,71.9057617 L81.4499512,88.2531738 M79.512207,71.1606445 L75.1757813,87.2207031 M76.1428223,70.0305176 L69.0949707,85.0151367 M73.0549316,68.2924805 L63.4956055,81.8474121 M70.3222656,65.9750977 L58.4997559,77.5228271 M67.9387207,63.3608398 L54.3361816,72.7873535 M66.1674805,60.097168 L51.2001953,67.151123 M64.9321289,56.8588867 L48.8857422,61.1013184 M64.4110107,53.3405762 L47.7805176,54.7126465 M64.4110107,49.6767578 L47.7805176,48.2114258 M64.9321289,46.2143555 L48.8857422,41.8408203 M66.1674805,42.8366699 L51.2001953,35.8425293 M67.9387207,39.7910156 L54.3361816,30.1401367 M70.3222656,37.114502 L58.4997559,25.1950684 M73.0549316,34.6330566 L63.4956055,21.0808105 M76.1428223,32.878418 L69.0949707,17.970459 M103.535645,42.6472168 L118.237549,35.8850098 M105.074585,46.0842285 L120.642822,41.8945312 M105.456543,49.6950684 L121.719971,48.1994629 M105.456543,53.3474121 L122.091797,54.7150879 M105.074585,56.8706055 L120.985596,61.3200684 M103.856201,60.2792969 L118.588867,67.2368164 M115.446045,73.0341797 L101.957764,63.4233398 M111.570068,78.1567383 L99.6518555,66.229248 M106.25708,82.1235352 L96.8505859,68.7348633 M100.678223,85.5 L93.5,70.1936035 M90.1137695,71.4589844 L94.4057617,87.2612305 M79.4091797,31.6350098 L75.1171875,15.6235352 M82.8955078,31.0583496 L81.578125,14.572998 M86.470459,31.0583496 L88.0168457,14.572998 M90.036377,31.6350098 L94.3476563,15.989502 M93.5,32.798584 L100.456543,17.9567871 M96.484375,34.5913086 L105.968506,21.1291504 M99.3212891,36.9023437 L110.827881,25.3776855 M101.603516,39.6313477 L115.068115,30.3793945 M86.6245117,71.9057617 L87.9677734,88.2531738 M83.0402832,71.9057617 L81.4499512,88.2531738 M79.512207,71.1606445 L75.1757813,87.2207031 M76.1428223,70.0305176 L69.0949707,85.0151367 M73.0549316,68.2924805 L63.4956055,81.8474121 M70.3222656,65.9750977 L58.4997559,77.5228271 M67.9387207,63.3608398 L54.3361816,72.7873535 M66.1674805,60.097168 L51.2001953,67.151123 M64.9321289,56.8588867 L48.8857422,61.1013184 M64.4110107,53.3405762 L47.7805176,54.7126465 M64.4110107,49.6767578 L47.7805176,48.2114258 M64.9321289,46.2143555 L48.8857422,41.8408203 M66.1674805,42.8366699 L51.2001953,35.8425293 M67.9387207,39.7910156 L54.3361816,30.1401367 M70.3222656,37.114502 L58.4997559,25.1950684 M73.0549316,34.6330566 L63.4956055,21.0808105 M76.1428223,32.878418 L69.0949707,17.970459 M103.535645,42.6472168 L118.237549,35.8850098 M105.074585,46.0842285 L120.642822,41.8945312 M105.456543,49.6950684 L121.719971,48.1994629 M105.456543,53.3474121 L122.091797,54.7150879 M105.074585,56.8706055 L120.985596,61.3200684 M103.856201,60.2792969 L118.588867,67.2368164 M115.446045,73.0341797 L101.957764,63.4233398 M111.570068,78.1567383 L99.6518555,66.229248 M106.25708,82.1235352 L96.8505859,68.7348633 M100.678223,85.5 L93.5,70.1936035 M90.1137695,71.4589844 L94.4057617,87.2612305 M79.4091797,31.6350098 L75.1171875,15.6235352 M82.8955078,31.0583496 L81.578125,14.572998 M86.470459,31.0583496 L88.0168457,14.572998 M90.036377,31.6350098 L94.3476563,15.989502 M93.5,32.798584 L100.456543,17.9567871 M96.484375,34.5913086 L105.968506,21.1291504 M99.3212891,36.9023437 L110.827881,25.3776855 M101.603516,39.6313477 L115.068115,30.3793945" id="innerRay" stroke="#FFFFFF" stroke-linecap="square"></path>
            <mask id="mask-2" fill="white">
                <use xlink:href="#path-1"></use>
            </mask>
            <g id="Mask"></g>
            <path d="M15.4389648,110.138184 L54.4282227,77.3769531 M50.4355469,71.4335938 L6.06054687,97.190918 M47.453125,64.8994141 L-0.801757813,82.9199219 M45.6030273,58.4545898 L-5.18798828,67.2397461 M44.9008789,51.0532227 L-6.47802734,51.0532227 M45.6030273,44.4331055 L-5.18798828,34.5273438 M47.453125,37.6875 L-0.801757813,19.3950195 M50.4355469,31.1494141 L4.97851562,5.84228516 M54.4282227,25.5439453 L14.7280273,-7.9921875 M59.5288086,20.5175781 L25.5302734,-18.6318359 M65.4609375,16.7382812 L38.5805664,-28.105957 M71.6503906,13.6894531 L53.3823242,-34.9365234 M78.5483398,11.8916016 L68.7280273,-39.1464844 M85.315918,11.1953125 L86.5668945,-40.4746094 M92.2900391,11.8916016 L102.39209,-39.1464844 M99.097168,13.6894531 L116.099121,-34.9365234 M105.262207,16.7382813 L128.817871,-29.1552734 M111.128418,20.5175781 L142.246582,-20.112793 M115.364258,25.5439453 L154.205566,-8.69580078 M119.387695,31.1494141 L163.73584,5.04638672 M122.519531,37.6875 L170.400879,19.3950195 M124.477051,44.4331055 L174.705566,35.3530273 M125.255371,51.7524414 L175.988281,51.0532227 M124.477051,58.4545898 L174.705566,67.2397461 M122.519531,64.8994141 L170.400879,82.2470703 M120.15625,71.4335938 L163.686523,96.3657227 M115.98584,77.3769531 L154.78125,109.467285 M110.895996,82.2470703 L144.174805,120.071289 M105.341309,86.105957 L130.430664,129.681152 M98.9160156,89.2197266 L115.98584,136.400391 M92.1459961,91.1254883 L101.163574,140.257812 M85.4047852,91.7797852 L85.4047852,141.855469 M78.2988281,91.1254883 L69.4179688,140.257812 M71.5761719,89.2197266 L54.4282227,137.124023 M65.0410156,86.105957 L39.9697266,130.420898 M59.4077148,82.2470703 L26.496582,120.882324" id="Combined-Shape" stroke="#FFFFFF" stroke-width="3" mask="url(#mask-2)"></path>
            <circle id="innerCircle" fill="#FFFFFF" mask="url(#mask-2)" cx="85" cy="51.5" r="9"></circle>
            <g id="waves" mask="url(#mask-2)" fill="#FFFFFF">
                <g transform="translate(15.678955, 107.390090)">
                    <path d="M1.42108547e-14,10.0317852 L3.08911133,15.3481915 C4.50048828,15.4743308 5.96761068,15.348517 7.49047852,14.9707501 C9.6685791,14.4329083 10.7183838,13.8197491 12.8879395,10.7255108 C15.0574951,7.63127255 17.6148682,2.74809384 21.1400146,2.74809384 C27.6201172,2.74809384 28.4592285,15.3481915 37.5899658,15.3481915 C46.2963867,15.3481915 47.0969238,3.01445126 53.7390137,3.01445126 C59.5206299,3.01445126 60.8398438,15.5250714 69.8493422,15.5250714 C78.4897461,15.5250714 80.6679688,2.74809384 85.9978027,2.74809384 C91.7719727,2.74809384 93.0827637,15.5250714 102.207031,15.5250714 C110.598389,15.5250714 112.146606,2.74809384 118.415039,2.74809384 C124.763794,2.74809384 125.432007,15.3481915 134.562378,15.3481915 C135.078247,15.3481915 135.693339,15.2754986 136.407654,15.1301129 L139.772949,9.17277645 C137.546875,11.511725 135.881185,12.6811993 134.775879,12.6811993 C127.766357,12.6811993 127.647095,8.8817842e-16 118.701416,8.8817842e-16 C109.419312,8.8817842e-16 107.861206,12.6811993 102.207031,12.6811993 C96.1729736,12.6811993 94.7486572,8.8817842e-16 85.9978027,8.8817842e-16 C77.510376,8.8817842e-16 75.9108887,12.6811993 69.8493422,12.6811993 C63.3111572,12.6811993 62.1280518,0.204026454 53.7390137,0.204026454 C44.387085,0.204026454 43.3758545,12.8988507 37.5899658,12.6811993 C30.9563325,12.4316578 30.5197754,8.8817842e-16 21.1400146,8.8817842e-16 C12.3043213,8.8817842e-16 10.9946289,12.4769757 5.23205566,12.5228741 C3.72644043,12.5228741 1.98242188,11.6925112 1.42108547e-14,10.0317852 Z" id="wave-1"></path>
                    <path d="M8.71606445,23.3799298 L10.6030273,25.8298809 C11.8614095,24.6353009 12.9958496,23.2594057 14.0063477,21.7021954 C15.5220947,19.36638 18.0048828,15.1001446 21.1708984,15.1001446 C27.0474854,15.1001446 28.8012695,27.9001934 37.6625977,27.9001934 C46.3890381,27.9001934 47.6169434,15.5250714 53.3718262,15.5250714 C60.2125244,15.5250714 60.324585,27.9001934 69.8210449,27.9001934 C78.420166,27.9001934 79.9506836,15.5250714 85.8613281,15.5250714 C92.2905273,15.5250714 92.7496338,27.9001934 102.207031,27.9001934 C110.527832,27.9001934 112.78125,15.1001446 118.421631,15.1001446 C121.890625,15.1001446 124.363159,20.9690411 126.701416,23.3799298 C128.260254,24.9871889 129.082682,25.8038393 129.168701,25.8298809 L131.005371,23.3799298 C130.007813,22.4848289 129.041097,21.3332175 128.105225,19.9250958 C126.701416,17.8129132 124.213501,12.3586895 118.421631,12.3586895 C110.004517,12.3586895 107.999023,25.2751934 102.207031,25.2751934 C96.1013184,25.2751934 94.6396484,12.6811993 85.8613281,12.6811993 C77.4906006,12.6811993 75.9375,25.2751934 69.8864746,25.2751934 C63.5133057,25.2751934 62.1728516,12.6811993 53.7390137,12.6811993 C45.381958,12.6811993 43.1048584,25.2751934 37.6625977,25.2751934 C31.3410645,25.2751934 29.645874,12.3586895 21.1708984,12.3586895 C14.8443604,12.3586895 11.8918457,19.7722638 10.817627,20.9690411 C10.1014811,21.7668927 9.40096029,22.5705222 8.71606445,23.3799298 Z" id="wave-2"></path>
                    <path d="M13.6362305,29.4005597 L15.8594971,31.6838849 C16.1693929,30.9824688 16.8011882,30.2213604 17.7548828,29.4005597 C19.1854248,28.1693585 19.1854248,27.6731427 21.2384033,27.6731427 C27.5762939,27.6731427 28.1865234,40.5020001 37.5036621,40.5020001 C45.9077148,40.5020001 48.1759033,27.9001934 53.3059082,27.9001934 C59.6473389,27.9001934 60.8723145,40.5020001 69.8607178,40.5020001 C79.7022705,40.5020001 79.4925537,27.9001934 86.1314697,27.9001934 C92.1870117,27.9001934 93.3380127,40.5020001 102.139282,40.5020001 C110.723877,40.5020001 112.641724,27.6731427 118.408081,27.6731427 C119.896444,27.6731427 121.333984,28.504767 122.720703,30.1680157 L123.966309,31.6838849 L126.037354,29.4005597 C125.223796,28.1155662 124.356893,27.1896222 123.436646,26.6227276 C122.056274,25.7723858 121.272827,25.2200177 118.408081,25.2200177 C109.402344,25.2200177 108.553223,37.8849347 102.139282,37.8849347 C96.1230469,37.8849347 94.9232178,25.2200177 86.1314697,25.2200177 C77.4383545,25.2200177 75.8779297,37.8849347 70.029541,37.8849347 C62.8729248,37.8849347 62.1751709,25.2200177 53.3059082,25.2200177 C44.7681885,25.2200177 43.4998779,37.7142804 37.5036621,37.7142804 C31.5074463,37.7142804 29.6687012,24.9243634 21.2384033,24.9243634 C18.3746338,24.9243634 15.8405762,26.4164288 13.6362305,29.4005597 Z" id="wave-3"></path>
                    <path d="M41.3430176,48.5602276 L44.4125977,49.7329571 C47.769043,43.6948712 50.807373,40.6758282 53.5275879,40.6758282 C60.1896973,40.6758282 60.6029053,53.1930401 69.8210449,53.1930401 C77.628418,53.1930401 79.9663086,40.5020001 85.8491211,40.5020001 C89.9650879,40.5020001 93.3251343,46.878526 93.9031982,47.8314679 C94.2885742,48.4667625 94.7919108,49.1005922 95.413208,49.7329571 L98.3442383,48.5602276 C97.0286458,47.0980694 96.0516357,45.8241843 95.413208,44.7385724 C94.4555664,43.1101544 91.2800293,37.8295147 85.8491211,37.8295147 C77.3808594,37.8295147 75.7200928,50.5236065 69.8436279,50.5236065 C64.8295898,50.5236065 61.4189453,37.8295147 53.5275879,37.8295147 C47.7144775,37.8295147 44.2416992,44.6365216 43.3876953,45.666795 C42.8183594,46.353644 42.1368001,47.3181215 41.3430176,48.5602276 Z" id="wave-4"></path>
                    <path d="M49.6958008,51.503587 L60.0291748,53.5675518 C58.673055,51.9528058 57.1530355,50.9574037 55.4691162,50.5813458 C53.7851969,50.2052878 51.8607585,50.5127016 49.6958008,51.503587 Z" id="bit-mid-left"></path>
                    <path d="M79.4489746,53.607835 C82.2154948,53.2276267 84.1011963,52.9324607 85.1060791,52.722337 C86.1109619,52.5122133 87.7420247,52.0719464 89.9992676,51.4015362 C88.1340332,50.4123598 86.2502441,50.127407 84.3479004,50.5466778 C82.2145182,50.9303855 80.581543,51.9507712 79.4489746,53.607835 Z" id="bit-mid-right"></path>
                    <path d="M22.5750732,37.8295147 L29.4842529,42.7173932 C28.6032308,41.2016868 27.5754801,40.0474713 26.401001,39.2547467 C25.1410726,38.4042421 23.8657633,37.9291648 22.5750732,37.8295147 Z" id="bit-left"></path>
                    <path d="M110.258301,42.6591046 C111.030029,41.3674379 111.986735,40.3190574 113.128418,39.513963 C115.012207,38.0149395 116.947266,37.951585 116.947266,37.951585 C116.947266,37.951585 114.717611,39.5207582 110.258301,42.6591046 Z" id="bit-right"></path>
                </g>
            </g>
        </g>
    </g>
</svg>