<?xml version="1.0" encoding="UTF-8"?>
<svg width="50px" height="50px" viewBox="0 0 50 50" version="1.1" xmlns="http://www.w3.org/2000/svg" xmlns:xlink="http://www.w3.org/1999/xlink">
    <title>insta</title>
    <g id="insta" stroke="none" stroke-width="1" fill="none" fill-rule="evenodd">
        <path d="M35.1,0 L14.9,0 C6.67324301,0.00551576249 0.00551576249,6.67324301 0,14.9 L0,35.1 C0.00551576249,43.326757 6.67324301,49.9944842 14.9,50 L35.1,50 C43.326757,49.9944842 49.9944842,43.326757 50,35.1 L50,14.9 C49.9944842,6.67324301 43.326757,0.00551576249 35.1,0 Z M45.0000458,35.1 C45.0080003,37.7280877 43.9675369,40.2508424 42.1091897,42.1091897 C40.2508424,43.9675369 37.7280877,45.0080003 35.1,45.0000458 L14.9,45.0000458 C12.2719123,45.0080003 9.74915757,43.9675369 7.89081034,42.1091897 C6.03246311,40.2508424 4.99199968,37.7280877 4.9999542,35.1 L4.9999542,14.9 C4.99199968,12.2719123 6.03246311,9.74915757 7.89081034,7.89081034 C9.74915757,6.03246311 12.2719123,4.99199968 14.9,4.9999542 L35.1,4.9999542 C37.7280877,4.99199968 40.2508424,6.03246311 42.1091897,7.89081034 C43.9675369,9.74915757 45.0080003,12.2719123 45.0000458,14.9 L45.0000458,35.1 Z" id="Shape" fill="#000000" fill-rule="nonzero"></path>
        <path d="M25,12 C17.8202983,12 12,17.8202983 12,25 C12,32.1797017 17.8202983,38 25,38 C32.1797017,38 38,32.1797017 38,25 C37.9889273,17.8248897 32.1751103,12.0110727 25,12 Z M25,32.9427688 C21.7874499,32.9427688 18.8912282,31.0075753 17.6618385,28.039566 C16.4324488,25.0715567 17.1119984,21.6552303 19.3836144,19.3836144 C21.6552303,17.1119984 25.0715567,16.4324488 28.039566,17.6618385 C31.0075753,18.8912282 32.9427688,21.7874499 32.9427688,25 C32.9427688,29.3866701 29.3866701,32.9427688 25,32.9427688 L25,32.9427688 Z" id="Shape" fill="#000000" fill-rule="nonzero"></path>
        <circle id="Oval" fill="#000000" fill-rule="nonzero" cx="38" cy="12" r="3"></circle>
    </g>
</svg>